<svg xmlns="http://www.w3.org/2000/svg" viewBox="0 0 32 32">
  <rect width="32" height="32" rx="6" fill="#FACC15"/>
  <path d="M7.5 20 L9 15.5 Q9.2 14.8 10 14.5 L22 14.5 Q22.8 14.8 23 15.5 L24.5 20 Q24.7 20.5 24.7 21 L24.7 23 Q24.7 23.5 24.2 23.5 L7.8 23.5 Q7.3 23.5 7.3 23 L7.3 21 Q7.3 20.5 7.5 20Z" fill="#FDE68A" stroke="#92400E" stroke-width="0.8"/>
  <path d="M12 14.5 L13 11 Q13.2 10.2 14 10 L18 10 Q18.8 10.2 19 11 L20 14.5" fill="#FDE68A" stroke="#92400E" stroke-width="0.8"/>
  <rect x="13.5" y="8" width="5" height="2.5" rx="1" fill="#1F2937"/>
  <text x="16" y="10" text-anchor="middle" font-family="Arial" font-weight="900" font-size="2.2" fill="#FACC15">TAXI</text>
  <rect x="9" y="15.5" width="4.5" height="3.2" rx="0.8" fill="#BFDBFE" opacity="0.7" stroke="#92400E" stroke-width="0.5"/>
  <rect x="18.5" y="15.5" width="4.5" height="3.2" rx="0.8" fill="#BFDBFE" opacity="0.7" stroke="#92400E" stroke-width="0.5"/>
  <circle cx="11" cy="24.5" r="2.2" fill="#374151" stroke="#1F2937" stroke-width="0.8"/>
  <circle cx="11" cy="24.5" r="0.9" fill="#9CA3AF"/>
  <circle cx="21" cy="24.5" r="2.2" fill="#374151" stroke="#1F2937" stroke-width="0.8"/>
  <circle cx="21" cy="24.5" r="0.9" fill="#9CA3AF"/>
</svg>
